<mxfile host="app.diagrams.net" modified="2023-07-06T12:54:51.827Z" agent="Mozilla/5.0 (Windows NT 10.0; Win64; x64) AppleWebKit/537.36 (KHTML, like Gecko) Chrome/114.0.0.0 Safari/537.36 Edg/114.0.1823.67" etag="1k__SPmXkqiqjrJ6ofjE" version="21.5.2" type="device">
  <diagram name="Page-1" id="vtR9RLWEkXFiAt_uQ7pW">
    <mxGraphModel dx="1470" dy="414" grid="1" gridSize="10" guides="1" tooltips="1" connect="1" arrows="1" fold="1" page="1" pageScale="1" pageWidth="827" pageHeight="1169" math="0" shadow="0">
      <root>
        <mxCell id="0" />
        <mxCell id="1" parent="0" />
        <mxCell id="bp4yoqAEJwrEd4YzJfxX-13" style="edgeStyle=orthogonalEdgeStyle;rounded=0;orthogonalLoop=1;jettySize=auto;html=1;endArrow=none;endFill=0;" edge="1" parent="1" source="bp4yoqAEJwrEd4YzJfxX-1" target="bp4yoqAEJwrEd4YzJfxX-8">
          <mxGeometry relative="1" as="geometry">
            <Array as="points">
              <mxPoint x="280" y="190" />
              <mxPoint x="280" y="190" />
            </Array>
          </mxGeometry>
        </mxCell>
        <mxCell id="bp4yoqAEJwrEd4YzJfxX-14" value="1" style="edgeLabel;html=1;align=center;verticalAlign=middle;resizable=0;points=[];" vertex="1" connectable="0" parent="bp4yoqAEJwrEd4YzJfxX-13">
          <mxGeometry x="-0.8505" y="-1" relative="1" as="geometry">
            <mxPoint x="4" y="-9" as="offset" />
          </mxGeometry>
        </mxCell>
        <mxCell id="bp4yoqAEJwrEd4YzJfxX-15" value="*" style="edgeLabel;html=1;align=center;verticalAlign=middle;resizable=0;points=[];" vertex="1" connectable="0" parent="bp4yoqAEJwrEd4YzJfxX-13">
          <mxGeometry x="0.9026" y="1" relative="1" as="geometry">
            <mxPoint x="1" y="-11" as="offset" />
          </mxGeometry>
        </mxCell>
        <mxCell id="bp4yoqAEJwrEd4YzJfxX-16" value="acheteur" style="edgeLabel;html=1;align=center;verticalAlign=middle;resizable=0;points=[];" vertex="1" connectable="0" parent="bp4yoqAEJwrEd4YzJfxX-13">
          <mxGeometry x="0.0519" relative="1" as="geometry">
            <mxPoint as="offset" />
          </mxGeometry>
        </mxCell>
        <mxCell id="bp4yoqAEJwrEd4YzJfxX-32" style="edgeStyle=orthogonalEdgeStyle;rounded=0;orthogonalLoop=1;jettySize=auto;html=1;endArrow=none;endFill=0;" edge="1" parent="1" source="bp4yoqAEJwrEd4YzJfxX-1" target="bp4yoqAEJwrEd4YzJfxX-27">
          <mxGeometry relative="1" as="geometry" />
        </mxCell>
        <mxCell id="bp4yoqAEJwrEd4YzJfxX-33" value="1" style="edgeLabel;html=1;align=center;verticalAlign=middle;resizable=0;points=[];" vertex="1" connectable="0" parent="bp4yoqAEJwrEd4YzJfxX-32">
          <mxGeometry x="0.6897" relative="1" as="geometry">
            <mxPoint x="10" as="offset" />
          </mxGeometry>
        </mxCell>
        <mxCell id="bp4yoqAEJwrEd4YzJfxX-34" value="*" style="edgeLabel;html=1;align=center;verticalAlign=middle;resizable=0;points=[];" vertex="1" connectable="0" parent="bp4yoqAEJwrEd4YzJfxX-32">
          <mxGeometry x="-0.8129" relative="1" as="geometry">
            <mxPoint x="-20" y="10" as="offset" />
          </mxGeometry>
        </mxCell>
        <mxCell id="bp4yoqAEJwrEd4YzJfxX-56" style="edgeStyle=orthogonalEdgeStyle;rounded=0;orthogonalLoop=1;jettySize=auto;html=1;endArrow=block;endFill=0;" edge="1" parent="1" source="bp4yoqAEJwrEd4YzJfxX-1" target="bp4yoqAEJwrEd4YzJfxX-51">
          <mxGeometry relative="1" as="geometry" />
        </mxCell>
        <mxCell id="bp4yoqAEJwrEd4YzJfxX-1" value="&lt;b&gt;Client&lt;/b&gt;" style="swimlane;fontStyle=0;childLayout=stackLayout;horizontal=1;startSize=26;fillColor=none;horizontalStack=0;resizeParent=1;resizeParentMax=0;resizeLast=0;collapsible=1;marginBottom=0;whiteSpace=wrap;html=1;" vertex="1" parent="1">
          <mxGeometry x="414" y="184" width="140" height="52" as="geometry" />
        </mxCell>
        <mxCell id="bp4yoqAEJwrEd4YzJfxX-5" value="+ adresse: Adresse" style="text;strokeColor=none;fillColor=none;align=left;verticalAlign=top;spacingLeft=4;spacingRight=4;overflow=hidden;rotatable=0;points=[[0,0.5],[1,0.5]];portConstraint=eastwest;whiteSpace=wrap;html=1;" vertex="1" parent="bp4yoqAEJwrEd4YzJfxX-1">
          <mxGeometry y="26" width="140" height="26" as="geometry" />
        </mxCell>
        <mxCell id="bp4yoqAEJwrEd4YzJfxX-7" style="edgeStyle=orthogonalEdgeStyle;rounded=0;orthogonalLoop=1;jettySize=auto;html=1;endArrow=none;endFill=0;dashed=1;dashPattern=1 2;" edge="1" parent="1" source="bp4yoqAEJwrEd4YzJfxX-6" target="bp4yoqAEJwrEd4YzJfxX-51">
          <mxGeometry relative="1" as="geometry">
            <Array as="points">
              <mxPoint x="590" y="82" />
              <mxPoint x="590" y="82" />
            </Array>
          </mxGeometry>
        </mxCell>
        <mxCell id="bp4yoqAEJwrEd4YzJfxX-6" value="le numÃ©ro de TVA est l&#39;Id" style="shape=note;whiteSpace=wrap;html=1;backgroundOutline=1;darkOpacity=0.05;" vertex="1" parent="1">
          <mxGeometry x="210" y="40" width="190" height="84" as="geometry" />
        </mxCell>
        <mxCell id="bp4yoqAEJwrEd4YzJfxX-35" style="edgeStyle=orthogonalEdgeStyle;rounded=0;orthogonalLoop=1;jettySize=auto;html=1;endArrow=none;endFill=0;" edge="1" parent="1" source="bp4yoqAEJwrEd4YzJfxX-8" target="bp4yoqAEJwrEd4YzJfxX-27">
          <mxGeometry relative="1" as="geometry">
            <Array as="points">
              <mxPoint x="160" y="410" />
            </Array>
          </mxGeometry>
        </mxCell>
        <mxCell id="bp4yoqAEJwrEd4YzJfxX-36" value="1" style="edgeLabel;html=1;align=center;verticalAlign=middle;resizable=0;points=[];" vertex="1" connectable="0" parent="bp4yoqAEJwrEd4YzJfxX-35">
          <mxGeometry x="0.9023" y="3" relative="1" as="geometry">
            <mxPoint y="-17" as="offset" />
          </mxGeometry>
        </mxCell>
        <mxCell id="bp4yoqAEJwrEd4YzJfxX-37" value="*" style="edgeLabel;html=1;align=center;verticalAlign=middle;resizable=0;points=[];" vertex="1" connectable="0" parent="bp4yoqAEJwrEd4YzJfxX-35">
          <mxGeometry x="-0.9386" y="-1" relative="1" as="geometry">
            <mxPoint x="-19" as="offset" />
          </mxGeometry>
        </mxCell>
        <mxCell id="bp4yoqAEJwrEd4YzJfxX-38" value="pointDeDepot" style="edgeLabel;html=1;align=center;verticalAlign=middle;resizable=0;points=[];" vertex="1" connectable="0" parent="bp4yoqAEJwrEd4YzJfxX-35">
          <mxGeometry x="-0.0381" relative="1" as="geometry">
            <mxPoint as="offset" />
          </mxGeometry>
        </mxCell>
        <mxCell id="bp4yoqAEJwrEd4YzJfxX-39" style="edgeStyle=orthogonalEdgeStyle;rounded=0;orthogonalLoop=1;jettySize=auto;html=1;endArrow=none;endFill=0;" edge="1" parent="1" source="bp4yoqAEJwrEd4YzJfxX-8" target="bp4yoqAEJwrEd4YzJfxX-27">
          <mxGeometry relative="1" as="geometry">
            <Array as="points">
              <mxPoint x="110" y="440" />
            </Array>
          </mxGeometry>
        </mxCell>
        <mxCell id="bp4yoqAEJwrEd4YzJfxX-40" value="*" style="edgeLabel;html=1;align=center;verticalAlign=middle;resizable=0;points=[];" vertex="1" connectable="0" parent="bp4yoqAEJwrEd4YzJfxX-39">
          <mxGeometry x="-0.953" y="-3" relative="1" as="geometry">
            <mxPoint x="-17" y="8" as="offset" />
          </mxGeometry>
        </mxCell>
        <mxCell id="bp4yoqAEJwrEd4YzJfxX-41" value="*" style="edgeLabel;html=1;align=center;verticalAlign=middle;resizable=0;points=[];" vertex="1" connectable="0" parent="bp4yoqAEJwrEd4YzJfxX-39">
          <mxGeometry x="0.9184" y="-3" relative="1" as="geometry">
            <mxPoint y="7" as="offset" />
          </mxGeometry>
        </mxCell>
        <mxCell id="bp4yoqAEJwrEd4YzJfxX-8" value="&lt;b&gt;Colis&lt;/b&gt;" style="swimlane;fontStyle=0;childLayout=stackLayout;horizontal=1;startSize=26;fillColor=none;horizontalStack=0;resizeParent=1;resizeParentMax=0;resizeLast=0;collapsible=1;marginBottom=0;whiteSpace=wrap;html=1;" vertex="1" parent="1">
          <mxGeometry x="90" y="180" width="140" height="78" as="geometry" />
        </mxCell>
        <mxCell id="bp4yoqAEJwrEd4YzJfxX-10" value="+ poids: float" style="text;strokeColor=none;fillColor=none;align=left;verticalAlign=top;spacingLeft=4;spacingRight=4;overflow=hidden;rotatable=0;points=[[0,0.5],[1,0.5]];portConstraint=eastwest;whiteSpace=wrap;html=1;" vertex="1" parent="bp4yoqAEJwrEd4YzJfxX-8">
          <mxGeometry y="26" width="140" height="26" as="geometry" />
        </mxCell>
        <mxCell id="bp4yoqAEJwrEd4YzJfxX-11" value="+ estUrgent: bool" style="text;strokeColor=none;fillColor=none;align=left;verticalAlign=top;spacingLeft=4;spacingRight=4;overflow=hidden;rotatable=0;points=[[0,0.5],[1,0.5]];portConstraint=eastwest;whiteSpace=wrap;html=1;" vertex="1" parent="bp4yoqAEJwrEd4YzJfxX-8">
          <mxGeometry y="52" width="140" height="26" as="geometry" />
        </mxCell>
        <mxCell id="bp4yoqAEJwrEd4YzJfxX-17" style="edgeStyle=orthogonalEdgeStyle;rounded=0;orthogonalLoop=1;jettySize=auto;html=1;endArrow=none;endFill=0;" edge="1" parent="1" source="bp4yoqAEJwrEd4YzJfxX-1" target="bp4yoqAEJwrEd4YzJfxX-8">
          <mxGeometry relative="1" as="geometry">
            <mxPoint x="480" y="212" as="sourcePoint" />
            <Array as="points" />
          </mxGeometry>
        </mxCell>
        <mxCell id="bp4yoqAEJwrEd4YzJfxX-24" value="1" style="edgeLabel;html=1;align=center;verticalAlign=middle;resizable=0;points=[];" vertex="1" connectable="0" parent="bp4yoqAEJwrEd4YzJfxX-17">
          <mxGeometry x="-0.8307" relative="1" as="geometry">
            <mxPoint x="5" y="7" as="offset" />
          </mxGeometry>
        </mxCell>
        <mxCell id="bp4yoqAEJwrEd4YzJfxX-25" value="*" style="edgeLabel;html=1;align=center;verticalAlign=middle;resizable=0;points=[];" vertex="1" connectable="0" parent="bp4yoqAEJwrEd4YzJfxX-17">
          <mxGeometry x="0.8455" y="-1" relative="1" as="geometry">
            <mxPoint x="-4" y="16" as="offset" />
          </mxGeometry>
        </mxCell>
        <mxCell id="bp4yoqAEJwrEd4YzJfxX-26" value="vendeur" style="edgeLabel;html=1;align=center;verticalAlign=middle;resizable=0;points=[];" vertex="1" connectable="0" parent="bp4yoqAEJwrEd4YzJfxX-17">
          <mxGeometry x="0.0074" y="1" relative="1" as="geometry">
            <mxPoint as="offset" />
          </mxGeometry>
        </mxCell>
        <mxCell id="bp4yoqAEJwrEd4YzJfxX-27" value="&lt;b&gt;CentreLivraison&lt;/b&gt;" style="swimlane;fontStyle=0;childLayout=stackLayout;horizontal=1;startSize=26;fillColor=none;horizontalStack=0;resizeParent=1;resizeParentMax=0;resizeLast=0;collapsible=1;marginBottom=0;whiteSpace=wrap;html=1;" vertex="1" parent="1">
          <mxGeometry x="410" y="390" width="140" height="78" as="geometry" />
        </mxCell>
        <mxCell id="bp4yoqAEJwrEd4YzJfxX-28" value="+ nom: string" style="text;strokeColor=none;fillColor=none;align=left;verticalAlign=top;spacingLeft=4;spacingRight=4;overflow=hidden;rotatable=0;points=[[0,0.5],[1,0.5]];portConstraint=eastwest;whiteSpace=wrap;html=1;" vertex="1" parent="bp4yoqAEJwrEd4YzJfxX-27">
          <mxGeometry y="26" width="140" height="26" as="geometry" />
        </mxCell>
        <mxCell id="bp4yoqAEJwrEd4YzJfxX-29" value="+ adresse: Adresse" style="text;strokeColor=none;fillColor=none;align=left;verticalAlign=top;spacingLeft=4;spacingRight=4;overflow=hidden;rotatable=0;points=[[0,0.5],[1,0.5]];portConstraint=eastwest;whiteSpace=wrap;html=1;" vertex="1" parent="bp4yoqAEJwrEd4YzJfxX-27">
          <mxGeometry y="52" width="140" height="26" as="geometry" />
        </mxCell>
        <mxCell id="bp4yoqAEJwrEd4YzJfxX-45" style="edgeStyle=orthogonalEdgeStyle;rounded=0;orthogonalLoop=1;jettySize=auto;html=1;endArrow=none;endFill=0;dashed=1;dashPattern=8 8;" edge="1" parent="1" source="bp4yoqAEJwrEd4YzJfxX-42">
          <mxGeometry relative="1" as="geometry">
            <mxPoint x="90" y="389" as="targetPoint" />
          </mxGeometry>
        </mxCell>
        <mxCell id="bp4yoqAEJwrEd4YzJfxX-42" value="&lt;b&gt;PointPassage&lt;/b&gt;" style="swimlane;fontStyle=0;childLayout=stackLayout;horizontal=1;startSize=26;fillColor=none;horizontalStack=0;resizeParent=1;resizeParentMax=0;resizeLast=0;collapsible=1;marginBottom=0;whiteSpace=wrap;html=1;" vertex="1" parent="1">
          <mxGeometry x="-140" y="350" width="140" height="78" as="geometry" />
        </mxCell>
        <mxCell id="bp4yoqAEJwrEd4YzJfxX-43" value="+ dateArrivÃ©e: Date" style="text;strokeColor=none;fillColor=none;align=left;verticalAlign=top;spacingLeft=4;spacingRight=4;overflow=hidden;rotatable=0;points=[[0,0.5],[1,0.5]];portConstraint=eastwest;whiteSpace=wrap;html=1;" vertex="1" parent="bp4yoqAEJwrEd4YzJfxX-42">
          <mxGeometry y="26" width="140" height="26" as="geometry" />
        </mxCell>
        <mxCell id="bp4yoqAEJwrEd4YzJfxX-44" value="+ dateDepart: Date" style="text;strokeColor=none;fillColor=none;align=left;verticalAlign=top;spacingLeft=4;spacingRight=4;overflow=hidden;rotatable=0;points=[[0,0.5],[1,0.5]];portConstraint=eastwest;whiteSpace=wrap;html=1;" vertex="1" parent="bp4yoqAEJwrEd4YzJfxX-42">
          <mxGeometry y="52" width="140" height="26" as="geometry" />
        </mxCell>
        <mxCell id="bp4yoqAEJwrEd4YzJfxX-57" style="edgeStyle=orthogonalEdgeStyle;rounded=0;orthogonalLoop=1;jettySize=auto;html=1;endArrow=block;endFill=0;" edge="1" parent="1" source="bp4yoqAEJwrEd4YzJfxX-46" target="bp4yoqAEJwrEd4YzJfxX-51">
          <mxGeometry relative="1" as="geometry">
            <Array as="points">
              <mxPoint x="900" y="132" />
            </Array>
          </mxGeometry>
        </mxCell>
        <mxCell id="bp4yoqAEJwrEd4YzJfxX-58" style="edgeStyle=orthogonalEdgeStyle;rounded=0;orthogonalLoop=1;jettySize=auto;html=1;endArrow=none;endFill=0;" edge="1" parent="1" source="bp4yoqAEJwrEd4YzJfxX-46" target="bp4yoqAEJwrEd4YzJfxX-27">
          <mxGeometry relative="1" as="geometry" />
        </mxCell>
        <mxCell id="bp4yoqAEJwrEd4YzJfxX-59" value="1" style="edgeLabel;html=1;align=center;verticalAlign=middle;resizable=0;points=[];" vertex="1" connectable="0" parent="bp4yoqAEJwrEd4YzJfxX-58">
          <mxGeometry x="0.8659" y="-1" relative="1" as="geometry">
            <mxPoint as="offset" />
          </mxGeometry>
        </mxCell>
        <mxCell id="bp4yoqAEJwrEd4YzJfxX-60" value="1..*" style="edgeLabel;html=1;align=center;verticalAlign=middle;resizable=0;points=[];" vertex="1" connectable="0" parent="bp4yoqAEJwrEd4YzJfxX-58">
          <mxGeometry x="-0.8312" y="-2" relative="1" as="geometry">
            <mxPoint as="offset" />
          </mxGeometry>
        </mxCell>
        <mxCell id="bp4yoqAEJwrEd4YzJfxX-63" style="edgeStyle=orthogonalEdgeStyle;rounded=0;orthogonalLoop=1;jettySize=auto;html=1;endArrow=none;endFill=0;" edge="1" parent="1" source="bp4yoqAEJwrEd4YzJfxX-46" target="bp4yoqAEJwrEd4YzJfxX-8">
          <mxGeometry relative="1" as="geometry">
            <Array as="points">
              <mxPoint x="880" y="510" />
              <mxPoint x="-170" y="510" />
              <mxPoint x="-170" y="219" />
            </Array>
          </mxGeometry>
        </mxCell>
        <mxCell id="bp4yoqAEJwrEd4YzJfxX-64" value="1" style="edgeLabel;html=1;align=center;verticalAlign=middle;resizable=0;points=[];" vertex="1" connectable="0" parent="bp4yoqAEJwrEd4YzJfxX-63">
          <mxGeometry x="-0.9801" y="-2" relative="1" as="geometry">
            <mxPoint as="offset" />
          </mxGeometry>
        </mxCell>
        <mxCell id="bp4yoqAEJwrEd4YzJfxX-65" value="*" style="edgeLabel;html=1;align=center;verticalAlign=middle;resizable=0;points=[];" vertex="1" connectable="0" parent="bp4yoqAEJwrEd4YzJfxX-63">
          <mxGeometry x="0.9674" y="1" relative="1" as="geometry">
            <mxPoint as="offset" />
          </mxGeometry>
        </mxCell>
        <mxCell id="bp4yoqAEJwrEd4YzJfxX-46" value="&lt;b&gt;Coursier&lt;/b&gt;" style="swimlane;fontStyle=0;childLayout=stackLayout;horizontal=1;startSize=26;fillColor=none;horizontalStack=0;resizeParent=1;resizeParentMax=0;resizeLast=0;collapsible=1;marginBottom=0;whiteSpace=wrap;html=1;" vertex="1" parent="1">
          <mxGeometry x="810" y="403" width="140" height="52" as="geometry" />
        </mxCell>
        <mxCell id="bp4yoqAEJwrEd4YzJfxX-51" value="&lt;b&gt;Personne&lt;/b&gt;" style="swimlane;fontStyle=0;childLayout=stackLayout;horizontal=1;startSize=26;fillColor=none;horizontalStack=0;resizeParent=1;resizeParentMax=0;resizeLast=0;collapsible=1;marginBottom=0;whiteSpace=wrap;html=1;" vertex="1" parent="1">
          <mxGeometry x="650" y="80" width="140" height="104" as="geometry" />
        </mxCell>
        <mxCell id="bp4yoqAEJwrEd4YzJfxX-52" value="# numTVA: string" style="text;strokeColor=none;fillColor=none;align=left;verticalAlign=top;spacingLeft=4;spacingRight=4;overflow=hidden;rotatable=0;points=[[0,0.5],[1,0.5]];portConstraint=eastwest;whiteSpace=wrap;html=1;" vertex="1" parent="bp4yoqAEJwrEd4YzJfxX-51">
          <mxGeometry y="26" width="140" height="26" as="geometry" />
        </mxCell>
        <mxCell id="bp4yoqAEJwrEd4YzJfxX-53" value="# nom: string" style="text;strokeColor=none;fillColor=none;align=left;verticalAlign=top;spacingLeft=4;spacingRight=4;overflow=hidden;rotatable=0;points=[[0,0.5],[1,0.5]];portConstraint=eastwest;whiteSpace=wrap;html=1;" vertex="1" parent="bp4yoqAEJwrEd4YzJfxX-51">
          <mxGeometry y="52" width="140" height="26" as="geometry" />
        </mxCell>
        <mxCell id="bp4yoqAEJwrEd4YzJfxX-54" value="# numTelephone: string" style="text;strokeColor=none;fillColor=none;align=left;verticalAlign=top;spacingLeft=4;spacingRight=4;overflow=hidden;rotatable=0;points=[[0,0.5],[1,0.5]];portConstraint=eastwest;whiteSpace=wrap;html=1;" vertex="1" parent="bp4yoqAEJwrEd4YzJfxX-51">
          <mxGeometry y="78" width="140" height="26" as="geometry" />
        </mxCell>
      </root>
    </mxGraphModel>
  </diagram>
</mxfile>
